<svg width="223" height="62" viewBox="0 0 223 62" fill="none" xmlns="http://www.w3.org/2000/svg">
<path d="M54.1014 49.4596V12.3823H69.6951C71.4524 12.3823 73.0476 12.6979 74.4794 13.3322C75.9257 13.9649 77.1059 14.8246 78.017 15.9097C78.9487 17.003 79.671 18.2957 80.1402 19.7092C80.6449 21.1389 80.8966 22.678 80.8966 24.325C80.9065 25.8933 80.6498 27.4496 80.1402 28.9117C79.6633 30.321 78.9418 31.6121 78.017 32.7112C77.09 33.798 75.9098 34.6561 74.478 35.2904C73.0462 35.9231 71.4524 36.2403 69.6951 36.2403H61.2055V49.458H54.1043L54.1014 49.4596ZM61.2026 29.2917H68.6943C70.1261 29.2917 71.3063 28.8393 72.2334 27.9345C73.1778 27.0297 73.6493 25.8255 73.6493 24.325C73.6493 22.8036 73.1778 21.5913 72.2334 20.6865C71.3063 19.7817 70.1261 19.3293 68.6943 19.3293H61.2026V29.2917ZM83.6546 35.9955C83.6546 33.4083 84.1825 31.0465 85.2412 28.9117C86.2819 26.795 87.8267 25.0386 89.7058 23.8355C91.6265 22.5685 93.7742 21.9358 96.149 21.9358C99.7604 21.9358 102.672 23.3027 104.885 26.0347C107.113 28.7491 108.228 32.2959 108.228 36.6749V38.33H90.2916C90.5201 40.0687 91.2432 41.5064 92.4639 42.6447C93.6845 43.7861 95.2783 44.356 97.2467 44.356C98.3213 44.356 99.4682 44.121 100.689 43.6509C101.924 43.1615 102.909 42.5191 103.641 41.7238L106.471 46.3926C105.3 47.5856 103.827 48.5081 102.054 49.1618C100.275 49.8165 98.413 50.146 96.5395 50.1374C92.8139 50.1374 89.7304 48.843 87.2906 46.2574C84.8666 43.6493 83.6546 40.2297 83.6546 35.9955ZM90.2439 33.4438H102.128C102.08 32.7613 101.931 32.0923 101.688 31.4635C101.427 30.7993 101.072 30.1853 100.638 29.6443C100.2 29.0647 99.5897 28.6042 98.8087 28.2597C98.0277 27.8975 97.1411 27.7172 96.1476 27.7172C95.2046 27.7172 94.3585 27.8894 93.6108 28.2323C92.8631 28.5769 92.26 29.0373 91.8044 29.6169C91.362 30.1559 90.9998 30.7701 90.7312 31.4361C90.4709 32.0689 90.3089 32.7386 90.2439 33.4438ZM112.816 49.4596V22.6136H119.161V26.2247C120.088 24.9931 121.243 23.9708 122.626 23.1578C124.026 22.3431 125.44 21.9342 126.872 21.9342V28.8296C126.434 28.7218 125.847 28.6686 125.115 28.6686C124.042 28.6686 122.911 28.9745 121.724 29.5895C120.536 30.1868 119.681 30.9016 119.161 31.734V49.4596H112.816ZM127.678 49.4596L136.269 35.6703L128.165 22.6136H135.266L140.271 30.8389L145.224 22.6136H152.325L144.272 35.6703L152.862 49.4596H145.761L140.269 40.3939L134.73 49.458L127.678 49.4596ZM154.473 35.9955C154.473 33.4083 155.001 31.0465 156.058 28.9117C157.1 26.7952 158.645 25.039 160.524 23.8355C162.445 22.5685 164.591 21.9358 166.967 21.9358C170.579 21.9358 173.492 23.3027 175.703 26.0347C177.932 28.7491 179.045 32.2959 179.045 36.6749V38.33H161.11C161.316 40.0229 162.093 41.5652 163.282 42.6447C164.503 43.7861 166.097 44.356 168.065 44.356C169.138 44.356 170.285 44.121 171.506 43.6509C172.742 43.1615 173.727 42.5191 174.459 41.7238L177.289 46.3926C176.118 47.5856 174.646 48.5081 172.873 49.1618C171.094 49.8165 169.231 50.146 167.358 50.1374C163.632 50.1374 160.549 48.843 158.109 46.2574C155.685 43.6493 154.473 40.2297 154.473 35.9955ZM161.061 33.4438H172.946C172.898 32.7613 172.75 32.0923 172.507 31.4635C172.245 30.7994 171.89 30.1855 171.457 29.6443C171.018 29.0647 170.408 28.6042 169.627 28.2597C168.846 27.8975 167.96 27.7172 166.967 27.7172C166.023 27.7172 165.177 27.8894 164.429 28.2323C163.681 28.5769 163.078 29.0373 162.623 29.6169C162.18 30.1559 161.818 30.77 161.55 31.4361C161.289 32.0689 161.126 32.7386 161.061 33.4438ZM183.636 49.4596V12.3823H189.981V49.4596H183.636ZM194.176 45.9579L196.934 40.8544C197.877 41.8493 199.138 42.7187 200.716 43.4593C202.31 44.2015 203.833 44.5734 205.281 44.5734C206.614 44.5734 207.624 44.319 208.306 43.8135C208.989 43.2886 209.332 42.5915 209.332 41.7238C209.332 41.1442 209.063 40.6644 208.526 40.2845C208.006 39.9045 207.321 39.6067 206.475 39.3893C205.553 39.1513 204.625 38.943 203.693 38.7647C202.662 38.5409 201.644 38.2506 200.644 37.8953C199.673 37.5519 198.739 37.0874 197.861 36.5107C197.031 35.9505 196.349 35.1551 195.812 34.1232C195.291 33.0735 195.031 31.8338 195.031 30.4042C195.031 28.0343 195.909 26.0347 197.666 24.4055C199.425 22.7585 201.839 21.9358 204.915 21.9358C208.623 21.9358 211.86 23.1578 214.628 25.6001L212.065 30.6215C211.3 29.736 210.266 28.9922 208.966 28.3949C207.683 27.7986 206.305 27.4943 204.915 27.4998C203.775 27.4998 202.855 27.7445 202.157 28.2323C201.473 28.7218 201.133 29.3464 201.133 30.1063C201.133 30.5764 201.335 30.9757 201.742 31.2993C202.148 31.6084 202.685 31.8515 203.353 32.0334C204.035 32.1944 204.801 32.386 205.647 32.6034C206.509 32.8207 207.387 33.0381 208.282 33.2538C209.193 33.4534 210.071 33.7786 210.917 34.231C211.78 34.6657 212.545 35.1729 213.211 35.7508C213.895 36.3304 214.44 37.1177 214.846 38.1126C215.253 39.1092 215.457 40.2571 215.457 41.5595C215.457 44.0936 214.52 46.156 212.651 47.7482C210.795 49.3421 208.233 50.1374 204.964 50.1374C202.864 50.1374 200.855 49.7671 198.936 49.0249C197.031 48.2827 195.446 47.2604 194.176 45.9579Z" fill="#656565"/>
<path fill-rule="evenodd" clip-rule="evenodd" d="M21.3964 34.664V52.9081H19.2993V55.4196H7.92434V52.9081H5.82724V12.7188H28.5295V15.1417H32.0728V18.5548H34.8699V29.4027H32.0728V32.2443H28.5295V34.6657L21.3964 34.664Z" fill="#656565"/>
<path fill-rule="evenodd" clip-rule="evenodd" d="M36.4279 10.4859V5.363H31.0506V4.00098H12.1651V9.01599H31.0506V10.5068H34.4884V15.7198H39.5619V10.4875H36.4279V10.4859Z" fill="#656565"/>
<path d="M21.3964 34.664V52.9081H19.2993V55.4196H7.92434V52.9081H5.82724V12.7188H28.5295V15.1417H32.0728V18.5548H34.8699V29.4027H32.0728V32.2443H28.5295V34.6657L21.3964 34.664Z" fill="#656565"/>
<path d="M36.4279 10.4859V5.363H31.0506V4.00098H12.1651V9.01599H31.0506V10.5068H34.4884V15.7198H39.5619V10.4875H36.4279V10.4859Z" fill="#656565"/>
</svg>
