<svg width="162" height="63" viewBox="0 0 162 63" fill="none" xmlns="http://www.w3.org/2000/svg">
<path d="M34.2358 3.0166H12.2405C7.14637 3.0166 3.01672 7.33881 3.01672 12.6705V49.4297C3.01672 54.7614 7.14637 59.0836 12.2405 59.0836H34.2358C39.33 59.0836 43.4596 54.7614 43.4596 49.4297V12.6705C43.4596 7.33881 39.33 3.0166 34.2358 3.0166Z" stroke="#656565" stroke-width="6.03344" stroke-miterlimit="10"/>
<path d="M37.6466 25.9088H13.5597C12.0325 25.9088 10.7947 24.7566 10.7947 23.3353V22.1702C10.7947 20.7489 12.0327 19.5967 13.5597 19.5967H37.6466C39.1739 19.5967 40.412 20.7489 40.412 22.1703V23.3353C41.7203 36.8989 40.6782 26.0815 37.6466 25.9088Z" fill="#656565"/>
<path d="M23.1417 29.7979H13.2532C11.8951 29.7979 10.7943 30.9501 10.7943 32.3714V33.5364C10.7943 34.9578 11.8951 36.11 13.2532 36.11H23.1417C24.4998 36.11 25.6006 34.9578 25.6006 33.5364V32.3714C25.6006 30.9501 24.4998 29.7979 23.1417 29.7979Z" fill="#656565"/>
<path d="M34.4062 29.7979H31.1645C29.8065 29.7979 28.7056 30.9501 28.7056 32.3714V33.5364C28.7056 34.9578 29.8065 36.11 31.1645 36.11H34.4062C35.7642 36.11 36.8651 34.9578 36.8651 33.5364V32.3714C36.8651 30.9501 35.7642 29.7979 34.4062 29.7979Z" fill="#656565"/>
<path d="M34.0509 40.6582H12.8937C11.5356 40.6582 10.4348 41.8104 10.4348 43.2318V44.3968C10.4348 45.8181 11.5356 46.9704 12.8937 46.9704H34.0509C35.4089 46.9704 36.5098 45.8181 36.5098 44.3968V43.2318C36.5098 41.8104 35.4089 40.6582 34.0509 40.6582Z" fill="#656565"/>
<path d="M23.1621 22.7434C27.7549 22.7879 30.3473 22.7484 31.8981 22.697C33.5381 22.6427 35.1823 22.7058 36.8205 22.6042C37.3864 22.5691 37.6452 22.544 38.0623 22.6042C39.901 22.8698 41.1271 24.2633 41.8317 25.0641C42.488 25.8123 43.0366 26.6566 43.4602 27.5704" stroke="#656565" stroke-width="6.03344" stroke-miterlimit="10"/>
<path d="M58.1092 4.90785H61.1834L65.3005 14.9568H65.463L69.5801 4.90785H72.6544V18.7759H70.2437V9.24838H70.115L66.2824 18.7352H64.4812L60.6485 9.22806H60.5198V18.7759H58.1092V4.90785ZM87.7819 11.8419C87.7819 13.3361 87.502 14.6159 86.9422 15.6813C86.387 16.7422 85.6286 17.5548 84.667 18.119C83.71 18.6833 82.6243 18.9655 81.4099 18.9655C80.1956 18.9655 79.1076 18.6833 78.146 18.119C77.189 17.5502 76.4306 16.7354 75.8708 15.6745C75.3156 14.6091 75.0379 13.3316 75.0379 11.8419C75.0379 10.3476 75.3156 9.07006 75.8708 8.00919C76.4306 6.94381 77.189 6.12897 78.146 5.56468C79.1076 5.00039 80.1956 4.71824 81.4099 4.71824C82.6243 4.71824 83.71 5.00039 84.667 5.56468C85.6286 6.12897 86.387 6.94381 86.9422 8.00919C87.502 9.07006 87.7819 10.3476 87.7819 11.8419ZM85.2561 11.8419C85.2561 10.79 85.0913 9.90296 84.7618 9.18066C84.4368 8.45386 83.9853 7.90536 83.4075 7.53519C82.8297 7.1605 82.1638 6.97315 81.4099 6.97315C80.656 6.97315 79.9902 7.1605 79.4123 7.53519C78.8345 7.90536 78.3808 8.45386 78.0512 9.18066C77.7262 9.90296 77.5637 10.79 77.5637 11.8419C77.5637 12.8937 77.7262 13.783 78.0512 14.5098C78.3808 15.2321 78.8345 15.7806 79.4123 16.1553C79.9902 16.5255 80.656 16.7106 81.4099 16.7106C82.1638 16.7106 82.8297 16.5255 83.4075 16.1553C83.9853 15.7806 84.4368 15.2321 84.7618 14.5098C85.0913 13.783 85.2561 12.8937 85.2561 11.8419ZM90.157 18.7759V4.90785H95.4658C96.468 4.90785 97.3009 5.06585 97.9645 5.38185C98.6327 5.69334 99.1315 6.11994 99.461 6.66166C99.7951 7.20338 99.9621 7.81733 99.9621 8.50351C99.9621 9.0678 99.8538 9.55084 99.6371 9.95261C99.4204 10.3499 99.1292 10.6726 98.7636 10.9209C98.3979 11.1692 97.9894 11.3475 97.5379 11.4559V11.5913C98.03 11.6184 98.5017 11.7696 98.9532 12.045C99.4091 12.3159 99.7816 12.6996 100.07 13.1962C100.359 13.6927 100.504 14.2931 100.504 14.9974C100.504 15.7152 100.33 16.3607 99.9824 16.934C99.6348 17.5028 99.1112 17.952 98.4115 18.2816C97.7117 18.6111 96.8314 18.7759 95.7706 18.7759H90.157ZM92.6692 16.6767H95.371C96.2829 16.6767 96.9398 16.5029 97.3416 16.1553C97.7478 15.8032 97.951 15.3518 97.951 14.801C97.951 14.3902 97.8494 14.02 97.6463 13.6905C97.4431 13.3564 97.1542 13.0946 96.7795 12.905C96.4048 12.7109 95.9579 12.6138 95.4388 12.6138H92.6692V16.6767ZM92.6692 10.8058H95.1544C95.5877 10.8058 95.9782 10.7268 96.3258 10.5688C96.6734 10.4063 96.9466 10.1783 97.1452 9.8849C97.3483 9.58695 97.4499 9.23484 97.4499 8.82855C97.4499 8.29134 97.2603 7.84893 96.8811 7.50133C96.5064 7.15373 95.9489 6.97992 95.2085 6.97992H92.6692V10.8058ZM105.202 4.90785V18.7759H102.689V4.90785H105.202ZM107.922 18.7759V4.90785H110.434V16.6699H116.542V18.7759H107.922ZM118.723 18.7759V4.90785H127.742V7.01378H121.235V10.7787H127.275V12.8847H121.235V16.6699H127.796V18.7759H118.723Z" fill="#656565"/>
<path d="M59.8901 36.8169H57.2086L62.0908 22.9489H65.1922L70.0812 36.8169H67.3997L63.6957 25.7929H63.5873L59.8901 36.8169ZM59.9781 31.3794H67.2913V33.3973H59.9781V31.3794ZM71.9078 36.8169V22.9489H77.1083C78.1737 22.9489 79.0675 23.1475 79.7898 23.5448C80.5166 23.942 81.0651 24.4882 81.4353 25.1835C81.81 25.8741 81.9973 26.6596 81.9973 27.5399C81.9973 28.4293 81.81 29.2193 81.4353 29.91C81.0606 30.6007 80.5076 31.1446 79.7763 31.5419C79.045 31.9346 78.1444 32.131 77.0745 32.131H73.6278V30.0657H76.7359C77.3589 30.0657 77.869 29.9574 78.2662 29.7407C78.6635 29.524 78.9569 29.226 79.1465 28.8468C79.3407 28.4676 79.4377 28.032 79.4377 27.5399C79.4377 27.0479 79.3407 26.6145 79.1465 26.2398C78.9569 25.8651 78.6612 25.5739 78.2595 25.3663C77.8622 25.1541 77.3498 25.048 76.7223 25.048H74.42V36.8169H71.9078ZM84.1795 36.8169V22.9489H89.38C90.4453 22.9489 91.3392 23.1475 92.0615 23.5448C92.7883 23.942 93.3368 24.4882 93.707 25.1835C94.0816 25.8741 94.269 26.6596 94.269 27.5399C94.269 28.4293 94.0816 29.2193 93.707 29.91C93.3323 30.6007 92.7793 31.1446 92.0479 31.5419C91.3166 31.9346 90.416 32.131 89.3461 32.131H85.8994V30.0657H89.0075C89.6305 30.0657 90.1406 29.9574 90.5379 29.7407C90.9352 29.524 91.2286 29.226 91.4182 28.8468C91.6123 28.4676 91.7094 28.032 91.7094 27.5399C91.7094 27.0479 91.6123 26.6145 91.4182 26.2398C91.2286 25.8651 90.9329 25.5739 90.5311 25.3663C90.1339 25.1541 89.6215 25.048 88.994 25.048H86.6917V36.8169H84.1795Z" fill="#656565"/>
<path d="M58.1092 54.8574V40.9894H63.418C64.4202 40.9894 65.2531 41.1474 65.9167 41.4634C66.5848 41.7749 67.0837 42.2015 67.4132 42.7432C67.7473 43.2849 67.9143 43.8989 67.9143 44.5851C67.9143 45.1493 67.806 45.6324 67.5893 46.0342C67.3726 46.4314 67.0814 46.7542 66.7158 47.0025C66.3501 47.2508 65.9415 47.4291 65.4901 47.5374V47.6729C65.9822 47.6999 66.4539 47.8512 66.9054 48.1266C67.3613 48.3974 67.7337 48.7811 68.0227 49.2777C68.3116 49.7743 68.456 50.3747 68.456 51.0789C68.456 51.7967 68.2822 52.4423 67.9346 53.0156C67.587 53.5844 67.0634 54.0336 66.3636 54.3631C65.6639 54.6926 64.7836 54.8574 63.7227 54.8574H58.1092ZM60.6214 52.7583H63.3232C64.2351 52.7583 64.892 52.5845 65.2937 52.2369C65.7 51.8847 65.9032 51.4333 65.9032 50.8826C65.9032 50.4717 65.8016 50.1016 65.5985 49.772C65.3953 49.438 65.1064 49.1761 64.7317 48.9865C64.357 48.7924 63.9101 48.6954 63.3909 48.6954H60.6214V52.7583ZM60.6214 46.8874H63.1065C63.5399 46.8874 63.9304 46.8084 64.278 46.6504C64.6256 46.4878 64.8987 46.2599 65.0974 45.9664C65.3005 45.6685 65.4021 45.3164 65.4021 44.9101C65.4021 44.3729 65.2125 43.9305 64.8333 43.5829C64.4586 43.2353 63.9011 43.0615 63.1607 43.0615H60.6214V46.8874ZM79.3835 40.9894H81.8958V50.0497C81.8958 51.0428 81.661 51.9163 81.1915 52.6702C80.7266 53.4241 80.072 54.0132 79.2278 54.4376C78.3836 54.8574 77.3972 55.0673 76.2686 55.0673C75.1355 55.0673 74.1469 54.8574 73.3027 54.4376C72.4585 54.0132 71.804 53.4241 71.339 52.6702C70.874 51.9163 70.6415 51.0428 70.6415 50.0497V40.9894H73.1538V49.8397C73.1538 50.4176 73.2802 50.9322 73.533 51.3836C73.7903 51.8351 74.1514 52.1895 74.6164 52.4468C75.0814 52.6996 75.6321 52.826 76.2686 52.826C76.9052 52.826 77.4559 52.6996 77.9209 52.4468C78.3904 52.1895 78.7515 51.8351 79.0043 51.3836C79.2571 50.9322 79.3835 50.4176 79.3835 49.8397V40.9894ZM87.1386 40.9894V54.8574H84.6264V40.9894H87.1386ZM89.859 54.8574V40.9894H92.3713V52.7515H98.4792V54.8574H89.859ZM105.359 54.8574H100.66V40.9894H105.454C106.831 40.9894 108.013 41.267 109.002 41.8223C109.995 42.373 110.758 43.1653 111.291 44.1991C111.824 45.2329 112.09 46.4698 112.09 47.9099C112.09 49.3544 111.821 50.5959 111.284 51.6342C110.751 52.6725 109.982 53.4693 108.975 54.0245C107.973 54.5798 106.767 54.8574 105.359 54.8574ZM103.172 52.6838H105.237C106.203 52.6838 107.009 52.5077 107.655 52.1556C108.3 51.799 108.785 51.2685 109.11 50.5643C109.435 49.8555 109.598 48.9707 109.598 47.9099C109.598 46.849 109.435 45.9687 109.11 45.269C108.785 44.5647 108.305 44.0388 107.668 43.6912C107.036 43.3391 106.251 43.163 105.312 43.163H103.172V52.6838ZM114.477 54.8574V40.9894H123.496V43.0953H116.989V46.8603H123.029V48.9662H116.989V52.7515H123.551V54.8574H114.477ZM126.059 54.8574V40.9894H131.26C132.325 40.9894 133.219 41.1745 133.942 41.5447C134.668 41.9148 135.217 42.434 135.587 43.1021C135.962 43.7657 136.149 44.5399 136.149 45.4247C136.149 46.314 135.959 47.086 135.58 47.7406C135.206 48.3906 134.653 48.894 133.921 49.2506C133.19 49.6027 132.292 49.7788 131.226 49.7788H127.522V47.6932H130.888C131.511 47.6932 132.021 47.6074 132.418 47.4359C132.815 47.2598 133.109 47.0047 133.298 46.6707C133.492 46.3321 133.589 45.9168 133.589 45.4247C133.589 44.9327 133.492 44.5128 133.298 44.1652C133.104 43.8131 132.808 43.5468 132.411 43.3662C132.014 43.1811 131.502 43.0886 130.874 43.0886H128.572V54.8574H126.059ZM133.224 48.5735L136.657 54.8574H133.853L130.481 48.5735H133.224ZM145.998 44.8017C145.935 44.2104 145.669 43.7499 145.199 43.4204C144.734 43.0908 144.129 42.926 143.384 42.926C142.861 42.926 142.412 43.005 142.037 43.163C141.662 43.321 141.375 43.5355 141.177 43.8063C140.978 44.0772 140.877 44.3864 140.872 44.734C140.872 45.0229 140.938 45.2735 141.069 45.4857C141.204 45.6978 141.387 45.8784 141.617 46.0274C141.847 46.1718 142.102 46.2937 142.382 46.393C142.662 46.4924 142.944 46.5759 143.229 46.6436L144.529 46.9686C145.052 47.0905 145.556 47.2553 146.039 47.4629C146.526 47.6706 146.962 47.9324 147.346 48.2484C147.734 48.5644 148.041 48.9459 148.267 49.3928C148.492 49.8397 148.605 50.3634 148.605 50.9638C148.605 51.7764 148.398 52.4919 147.982 53.1104C147.567 53.7243 146.966 54.2051 146.181 54.5527C145.4 54.8958 144.454 55.0673 143.344 55.0673C142.265 55.0673 141.328 54.9003 140.534 54.5662C139.744 54.2322 139.125 53.7446 138.678 53.1036C138.236 52.4626 137.997 51.6816 137.96 50.7607H140.432C140.468 51.2437 140.617 51.6455 140.879 51.966C141.141 52.2865 141.482 52.5258 141.901 52.6838C142.326 52.8418 142.8 52.9208 143.323 52.9208C143.87 52.9208 144.348 52.8395 144.759 52.677C145.174 52.51 145.499 52.2797 145.734 51.9863C145.969 51.6884 146.088 51.3408 146.093 50.9435C146.088 50.5823 145.982 50.2844 145.775 50.0497C145.567 49.8104 145.276 49.6118 144.901 49.4538C144.531 49.2912 144.098 49.1468 143.601 49.0204L142.023 48.6141C140.881 48.3207 139.978 47.876 139.315 47.2801C138.656 46.6797 138.326 45.8829 138.326 44.8898C138.326 44.0727 138.547 43.3572 138.99 42.7432C139.437 42.1293 140.044 41.653 140.811 41.3144C141.579 40.9713 142.448 40.7998 143.418 40.7998C144.402 40.7998 145.265 40.9713 146.005 41.3144C146.75 41.653 147.334 42.1247 147.759 42.7297C148.183 43.3301 148.402 44.0208 148.416 44.8017H145.998Z" fill="#656565"/>
</svg>
