<svg width="189" height="64" viewBox="0 0 189 64" fill="none" xmlns="http://www.w3.org/2000/svg">
<g clip-path="url(#clip0_1_198)">
<path d="M59.7742 48.0481C60.5824 45.9118 61.0296 43.5689 61.0296 41.1194C61.0296 34.7145 58.0424 28.9073 53.1594 25.6624C52.6167 25.2647 48.5908 22.4284 43.1786 21.533C38.0242 20.6811 33.1471 22.5763 32.9421 22.6588L31.3938 23.2717L34.8145 28.6986L31.3255 33.0671L8.94692 -1.76123L7.92191 -0.89188C7.65638 -0.66585 5.31153 1.47492 4.96009 7.04746C4.66137 11.792 6.03978 15.9866 6.79927 17.897C5.93044 18.9554 4.95619 21.1788 4.95619 25.8254C4.95619 30.4721 6.1374 33.9016 6.83832 35.4187C6.03002 36.7141 4.95619 39.4981 4.95619 45.1336C4.95619 53.1925 10.6709 58.5825 10.915 58.8086L11.2625 59.1302H44.9729C46.8726 61.9795 49.7016 63.7855 52.3394 63.7855C53.3312 63.7855 54.3191 63.5878 55.2446 63.2096C55.7698 64.0508 56.1329 64.631 56.1426 64.6462L56.8162 65.7264L57.8237 65.0396C60.7758 63.0248 62.5388 59.5236 62.5388 55.6723C62.5388 52.81 61.5411 50.0846 59.7722 48.046L59.7742 48.0481ZM38.0008 28.9029L35.4002 24.7778C37.1066 24.3301 39.9396 23.8128 42.8135 24.2867C46.5094 24.8973 49.5455 26.5556 50.961 27.438L50.9414 27.4794L51.9157 28.077C56.0216 30.8264 58.5305 35.723 58.5305 41.1216C58.5305 48.9545 53.1145 55.4877 46.2323 56.2679L32.8191 35.3905L38.0008 28.9029ZM9.39403 34.784C9.33156 34.6798 7.46114 31.5088 7.46114 25.8254C7.46114 22.8806 7.86919 21.2962 8.24015 20.4658L31.8995 56.3483H23.5354L9.39403 34.784ZM7.46114 45.1336C7.46114 41.4259 7.96681 39.2438 8.42369 38.0267L20.4389 56.3483H12.2036C11.0926 55.1682 7.46114 50.8671 7.46114 45.1358V45.1336ZM34.9999 56.3461L9.43308 17.571C9.14607 16.9537 7.13118 12.4135 7.45724 7.24306C7.60171 4.94798 8.13863 3.43314 8.61892 2.50945L43.2098 56.3483H34.998L34.9999 56.3461ZM52.3433 61.0037C50.9161 61.0037 49.3307 60.1582 48.0265 58.7804C49.2936 58.4956 50.506 58.0457 51.6502 57.4502L52.5444 58.8803V58.8824V58.8868C52.9251 59.4932 53.3429 60.1582 53.7529 60.8146C53.296 60.9385 52.8255 61.0015 52.3433 61.0015V61.0037ZM57.4743 61.8991L53.8642 56.1223C53.8544 56.107 53.8447 56.0896 53.8349 56.0745C55.7132 54.6661 57.318 52.8318 58.5305 50.6997C59.5028 52.1167 60.0417 53.8598 60.0417 55.6768C60.0417 58.1087 59.0986 60.3538 57.4743 61.8991Z" fill="#656565"/>
<path d="M51.5672 42.8379C53.1222 42.8379 54.3827 41.4347 54.3827 39.7039C54.3827 37.973 53.1222 36.5698 51.5672 36.5698C50.0124 36.5698 48.7519 37.973 48.7519 39.7039C48.7519 41.4347 50.0124 42.8379 51.5672 42.8379Z" fill="#656565"/>
<path d="M75.9544 30.4321H71.5227V49.7089H75.9411C77.0689 49.7089 78.0287 49.438 78.8248 48.8911C79.6209 48.3494 80.2224 47.5581 80.6425 46.5333C81.0584 45.503 81.2662 44.2604 81.2662 42.8V37.3356C81.2662 35.1423 80.8018 33.4431 79.8775 32.2376C78.953 31.0321 77.6439 30.4268 75.95 30.4268L75.9544 30.4321ZM79.2582 42.9116C79.2582 44.2551 78.9752 45.296 78.409 46.0341C77.8429 46.7723 77.0424 47.1439 76.0119 47.1439H73.4865V33.0076H76.0119C77.0424 33.0076 77.8429 33.3793 78.409 34.1175C78.9752 34.8556 79.2582 35.8965 79.2582 37.24V42.9169V42.9116Z" fill="#656565"/>
<path d="M85.5968 30.4268H83.4315V49.7089H85.5968V30.4268Z" fill="#656565"/>
<path d="M91.8 30.4268L86.6793 49.7089H88.7822L89.8292 45.4753H95.4382L96.4852 49.7089H98.5881L93.4673 30.4268H91.8044H91.8ZM90.4626 42.9097L92.6315 34.1557L94.8003 42.9097H90.467H90.4626Z" fill="#656565"/>
<path d="M100.952 30.4268H98.5881V49.7089H99.7726H100.952H109.414V47.1333H100.952V30.4268Z" fill="#656565"/>
<path d="M110.447 30.4268H109.414V49.7089H110.447H111.541H119.157V47.1333H111.541V41.4193H118.01V38.8491H111.541V33.0023H119.157V30.4268H111.541H110.447Z" fill="#656565"/>
<path d="M121.971 34.2405C122.496 33.4237 123.19 33.0126 124.054 33.0126C124.467 33.0126 124.868 33.1375 125.251 33.3872C125.639 33.637 125.976 33.9908 126.261 34.4487C126.547 34.9013 126.751 35.432 126.876 36.0408H128.896C128.736 34.9169 128.43 33.9336 127.975 33.0907C127.521 32.253 126.956 31.5974 126.284 31.1291C125.611 30.6609 124.868 30.4268 124.054 30.4268C123.075 30.4268 122.215 30.7182 121.481 31.306C120.746 31.8888 120.177 32.7109 119.768 33.767C119.363 34.8232 119.157 36.0615 119.157 37.482V42.6641C119.157 44.0741 119.363 45.3125 119.768 46.3687C120.172 47.4248 120.742 48.2469 121.481 48.8297C122.215 49.4124 123.075 49.7089 124.054 49.7089C124.868 49.7089 125.607 49.4748 126.279 49.0065C126.952 48.5383 127.513 47.8827 127.971 47.045C128.43 46.2073 128.736 45.2187 128.9 44.0949H126.88C126.693 45.073 126.328 45.8222 125.785 46.3426C125.242 46.8629 124.667 47.1231 124.054 47.1231C123.19 47.1231 122.496 46.7172 121.971 45.9003C121.446 45.0835 121.183 44.0065 121.183 42.6641V37.482C121.183 36.1396 121.446 35.0574 121.971 34.2405Z" fill="#656565"/>
<path d="M129.983 33.0023H134.321V49.7089H136.473V33.0023H140.81V30.4268H129.983V33.0023Z" fill="#656565"/>
<path d="M148.449 49.7089H150.553L145.431 30.4268H143.767L138.644 49.7089H140.749L141.796 45.4753H147.407L148.454 49.7089H148.449ZM142.429 42.9044L144.598 34.1504L146.769 42.9044H142.434H142.429Z" fill="#656565"/>
</g>
<defs>
<clipPath id="clip0_1_198">
<rect width="188.469" height="63.9651" fill="white"/>
</clipPath>
</defs>
</svg>
