<svg width="197" height="71" viewBox="0 0 197 71" fill="none" xmlns="http://www.w3.org/2000/svg">
<path d="M0.96 14.2C0.96 13.24 1.6 12.6 2.56 12.6H20.608C21.568 12.6 22.208 13.24 22.208 14.2V17.24C22.208 18.2 21.568 18.84 20.608 18.84H14.912V33.4C14.912 34.36 14.272 35 13.312 35H9.696C8.736 35 8.096 34.36 8.096 33.4V18.84H2.56C1.6 18.84 0.96 18.2 0.96 17.24V14.2ZM24.0363 19.896C24.0363 15.576 28.9003 12.28 35.9723 12.28C38.1483 12.28 40.5483 12.824 43.4923 13.528C44.2283 13.688 44.7083 14.328 44.7083 15.096V17.432C44.7083 18.68 43.9083 19.32 42.6603 19.096C40.5483 18.712 37.2843 18.264 34.7883 18.264C32.6763 18.264 31.0763 18.584 31.0763 19.512C31.0763 20.76 33.8283 20.824 35.8123 20.888C39.2683 20.888 45.9243 21.208 45.9243 27.352C45.9243 31.928 41.1243 35.32 33.9883 35.32C31.1723 35.32 28.1643 34.52 25.3163 33.464C24.7083 33.24 24.2923 32.632 24.2923 31.992V29.592C24.2923 28.408 24.9003 27.768 25.8923 27.768C26.1163 27.768 26.3723 27.8 26.6283 27.864C29.0923 28.504 32.8363 29.304 35.5563 29.304C37.4763 29.304 38.8843 28.92 38.8843 27.768C38.8843 26.424 36.0683 26.328 33.8923 26.232C33.5403 26.232 33.2203 26.232 32.8683 26.2C31.1723 26.136 24.0363 25.944 24.0363 19.896ZM46.8625 23.8C46.8625 16.76 51.4065 12.28 59.0865 12.28C66.7345 12.28 71.2785 16.76 71.2785 23.8C71.2785 30.84 66.7345 35.32 59.0865 35.32C51.4065 35.32 46.8625 30.84 46.8625 23.8ZM53.9025 23.8C53.9025 27.128 55.7585 29.304 59.0545 29.304C62.3825 29.304 64.2385 27.128 64.2385 23.8C64.2385 20.472 62.3825 18.296 59.0545 18.296C55.7585 18.296 53.9025 20.472 53.9025 23.8ZM73.1263 14.2C73.1263 13.24 73.7663 12.6 74.7263 12.6H77.9903C78.9503 12.6 79.5903 13.24 79.5903 14.2V28.76H90.8543C91.8143 28.76 92.4543 29.4 92.4543 30.36V33.4C92.4543 34.36 91.8143 35 90.8543 35H74.7263C73.7663 35 73.1263 34.36 73.1263 33.4V14.2ZM96.7283 35C95.2883 35 94.6803 34.104 95.2883 32.76L103.672 13.56C103.928 12.984 104.504 12.6 105.144 12.6H112.056C112.696 12.6 113.272 12.984 113.528 13.56L121.912 32.76C122.52 34.104 121.912 35 120.472 35H116.888C116.248 35 115.64 34.584 115.416 33.976L114.456 31.512H102.744L101.784 33.976C101.56 34.584 100.952 35 100.312 35H96.7283ZM105.144 25.528H112.056L109.336 18.584H107.864L105.144 25.528ZM119.629 15.064C118.637 13.592 119.181 12.6 120.973 12.6H124.621C125.165 12.6 125.709 12.888 125.997 13.368L130.637 20.952L135.245 13.368C135.533 12.888 136.077 12.6 136.622 12.6H140.302C142.062 12.6 142.605 13.592 141.646 15.064L133.837 27L133.869 33.4C133.869 34.36 133.229 35 132.269 35H129.005C128.045 35 127.405 34.36 127.405 33.4L127.469 27L119.629 15.064ZM145.074 14.2C145.074 13.24 145.714 12.6 146.674 12.6H164.722C165.682 12.6 166.322 13.24 166.322 14.2V17.24C166.322 18.2 165.682 18.84 164.722 18.84H151.314L151.442 18.904C151.506 18.968 151.538 19.032 151.538 19.128V21.304H163.506C164.466 21.304 165.106 21.944 165.106 22.904V24.664C165.106 25.624 164.466 26.264 163.506 26.264H151.314L151.442 26.328C151.506 26.392 151.538 26.456 151.538 26.552V28.76H164.946C165.906 28.76 166.546 29.4 166.546 30.36V33.4C166.546 34.36 165.906 35 164.946 35H146.674C145.714 35 145.074 34.36 145.074 33.4V14.2Z" fill="white"/>
<path d="M2.11364 65V47.5455H8.01136C9.38068 47.5455 10.5 47.7926 11.3693 48.2869C12.2443 48.7756 12.892 49.4375 13.3125 50.2727C13.733 51.108 13.9432 52.0398 13.9432 53.0682C13.9432 54.0966 13.733 55.0312 13.3125 55.8722C12.8977 56.7131 12.2557 57.3835 11.3864 57.8835C10.517 58.3778 9.40341 58.625 8.04545 58.625H3.81818V56.75H7.97727C8.91477 56.75 9.66761 56.5881 10.2358 56.2642C10.804 55.9403 11.2159 55.5028 11.4716 54.9517C11.733 54.3949 11.8636 53.767 11.8636 53.0682C11.8636 52.3693 11.733 51.7443 11.4716 51.1932C11.2159 50.642 10.8011 50.2102 10.2273 49.8977C9.65341 49.5795 8.89205 49.4205 7.94318 49.4205H4.22727V65H2.11364ZM17.0753 65V51.9091H19.0185V53.8864H19.1548C19.3935 53.2386 19.8253 52.7131 20.4503 52.3097C21.0753 51.9062 21.7798 51.7045 22.5639 51.7045C22.7116 51.7045 22.8963 51.7074 23.1179 51.7131C23.3395 51.7187 23.5071 51.7273 23.6207 51.7386V53.7841C23.5526 53.767 23.3963 53.7415 23.152 53.7074C22.9134 53.6676 22.6605 53.6477 22.3935 53.6477C21.7571 53.6477 21.1889 53.7812 20.6889 54.0483C20.1946 54.3097 19.8026 54.6733 19.5128 55.1392C19.2287 55.5994 19.0866 56.125 19.0866 56.7159V65H17.0753ZM30.9247 65.2727C29.7429 65.2727 28.706 64.9915 27.8139 64.429C26.9276 63.8665 26.2344 63.0795 25.7344 62.0682C25.2401 61.0568 24.9929 59.875 24.9929 58.5227C24.9929 57.1591 25.2401 55.9687 25.7344 54.9517C26.2344 53.9347 26.9276 53.1449 27.8139 52.5824C28.706 52.0199 29.7429 51.7386 30.9247 51.7386C32.1065 51.7386 33.1406 52.0199 34.027 52.5824C34.919 53.1449 35.6122 53.9347 36.1065 54.9517C36.6065 55.9687 36.8565 57.1591 36.8565 58.5227C36.8565 59.875 36.6065 61.0568 36.1065 62.0682C35.6122 63.0795 34.919 63.8665 34.027 64.429C33.1406 64.9915 32.1065 65.2727 30.9247 65.2727ZM30.9247 63.4659C31.8224 63.4659 32.5611 63.2358 33.1406 62.7756C33.7202 62.3153 34.1491 61.7102 34.4276 60.9602C34.706 60.2102 34.8452 59.3977 34.8452 58.5227C34.8452 57.6477 34.706 56.8324 34.4276 56.0767C34.1491 55.321 33.7202 54.7102 33.1406 54.2443C32.5611 53.7784 31.8224 53.5455 30.9247 53.5455C30.027 53.5455 29.2884 53.7784 28.7088 54.2443C28.1293 54.7102 27.7003 55.321 27.4219 56.0767C27.1435 56.8324 27.0043 57.6477 27.0043 58.5227C27.0043 59.3977 27.1435 60.2102 27.4219 60.9602C27.7003 61.7102 28.1293 62.3153 28.7088 62.7756C29.2884 63.2358 30.027 63.4659 30.9247 63.4659ZM44.87 65.2727C43.7791 65.2727 42.8161 64.9972 41.9808 64.446C41.1456 63.8892 40.4922 63.1051 40.0206 62.0938C39.549 61.0767 39.3132 59.875 39.3132 58.4886C39.3132 57.1136 39.549 55.9205 40.0206 54.9091C40.4922 53.8977 41.1484 53.1165 41.9893 52.5653C42.8303 52.0142 43.8018 51.7386 44.9041 51.7386C45.7564 51.7386 46.4297 51.8807 46.924 52.1648C47.424 52.4432 47.8047 52.7614 48.0661 53.1193C48.3331 53.4716 48.5405 53.7614 48.6882 53.9886H48.8587V47.5455H50.87V65H48.9268V62.9886H48.6882C48.5405 63.2273 48.3303 63.5284 48.0575 63.892C47.7848 64.25 47.3956 64.571 46.8899 64.8551C46.3842 65.1335 45.7109 65.2727 44.87 65.2727ZM45.1428 63.4659C45.9496 63.4659 46.6314 63.2557 47.1882 62.8352C47.745 62.4091 48.1683 61.821 48.4581 61.071C48.7479 60.3153 48.8928 59.4432 48.8928 58.4545C48.8928 57.4773 48.7507 56.6222 48.4666 55.8892C48.1825 55.1506 47.7621 54.5767 47.2053 54.1676C46.6484 53.7528 45.9609 53.5455 45.1428 53.5455C44.2905 53.5455 43.5803 53.7642 43.0121 54.2017C42.4496 54.6335 42.0263 55.2216 41.7422 55.9659C41.4638 56.7045 41.3246 57.5341 41.3246 58.4545C41.3246 59.3864 41.4666 60.233 41.7507 60.9943C42.0405 61.75 42.4666 62.3523 43.0291 62.8011C43.5973 63.2443 44.3018 63.4659 45.1428 63.4659ZM63.0831 59.6477V51.9091H65.0945V65H63.0831V62.7841H62.9467C62.6399 63.4489 62.1626 64.0142 61.5149 64.4801C60.8672 64.9403 60.049 65.1705 59.0604 65.1705C58.2422 65.1705 57.5149 64.9915 56.8786 64.6335C56.2422 64.2699 55.7422 63.7244 55.3786 62.9972C55.0149 62.2642 54.8331 61.3409 54.8331 60.2273V51.9091H56.8445V60.0909C56.8445 61.0455 57.1115 61.8068 57.6456 62.375C58.1854 62.9432 58.8729 63.2273 59.7081 63.2273C60.2081 63.2273 60.7166 63.0994 61.2337 62.8438C61.7564 62.5881 62.1939 62.196 62.5462 61.6676C62.9041 61.1392 63.0831 60.4659 63.0831 59.6477ZM74.0966 65.2727C72.8693 65.2727 71.8125 64.983 70.9261 64.4034C70.0398 63.8239 69.358 63.0256 68.8807 62.0085C68.4034 60.9915 68.1648 59.8295 68.1648 58.5227C68.1648 57.1932 68.4091 56.0199 68.8977 55.0028C69.392 53.9801 70.0795 53.1818 70.9602 52.608C71.8466 52.0284 72.8807 51.7386 74.0625 51.7386C74.983 51.7386 75.8125 51.9091 76.5511 52.25C77.2898 52.5909 77.8949 53.0682 78.3665 53.6818C78.8381 54.2955 79.1307 55.0114 79.2443 55.8295H77.233C77.0795 55.233 76.7386 54.7045 76.2102 54.2443C75.6875 53.7784 74.983 53.5455 74.0966 53.5455C73.3125 53.5455 72.625 53.75 72.0341 54.1591C71.4489 54.5625 70.9915 55.1335 70.6619 55.8722C70.3381 56.6051 70.1761 57.4659 70.1761 58.4545C70.1761 59.4659 70.3352 60.3466 70.6534 61.0966C70.9773 61.8466 71.4318 62.429 72.017 62.8438C72.608 63.2585 73.3011 63.4659 74.0966 63.4659C74.6193 63.4659 75.0938 63.375 75.5199 63.1932C75.946 63.0114 76.3068 62.75 76.6023 62.4091C76.8977 62.0682 77.108 61.6591 77.233 61.1818H79.2443C79.1307 61.9545 78.8494 62.6506 78.4006 63.2699C77.9574 63.8835 77.3693 64.3722 76.6364 64.7358C75.9091 65.0938 75.0625 65.2727 74.0966 65.2727ZM87.8778 51.9091V53.6136H81.0938V51.9091H87.8778ZM83.071 48.7727H85.0824V61.25C85.0824 61.8182 85.1648 62.2443 85.3295 62.5284C85.5 62.8068 85.7159 62.9943 85.9773 63.0909C86.2443 63.1818 86.5256 63.2273 86.821 63.2273C87.0426 63.2273 87.2244 63.2159 87.3665 63.1932C87.5085 63.1648 87.6222 63.142 87.7074 63.125L88.1165 64.9318C87.9801 64.983 87.7898 65.0341 87.5455 65.0852C87.3011 65.142 86.9915 65.1705 86.6165 65.1705C86.0483 65.1705 85.4915 65.0483 84.946 64.804C84.4063 64.5597 83.9574 64.1875 83.5994 63.6875C83.2472 63.1875 83.071 62.5568 83.071 61.7955V48.7727ZM103.312 65H97.9261V47.5455H103.551C105.244 47.5455 106.693 47.8949 107.898 48.5938C109.102 49.2869 110.026 50.2841 110.668 51.5852C111.31 52.8807 111.631 54.4318 111.631 56.2386C111.631 58.0568 111.307 59.6222 110.659 60.9347C110.011 62.2415 109.068 63.2472 107.83 63.9517C106.591 64.6506 105.085 65 103.312 65ZM100.04 63.125H103.176C104.619 63.125 105.815 62.8466 106.764 62.2898C107.713 61.733 108.42 60.9403 108.886 59.9119C109.352 58.8835 109.585 57.6591 109.585 56.2386C109.585 54.8295 109.355 53.6165 108.895 52.5994C108.435 51.5767 107.747 50.7926 106.832 50.2472C105.918 49.696 104.778 49.4205 103.415 49.4205H100.04V63.125ZM120.392 65.2727C119.131 65.2727 118.043 64.9943 117.128 64.4375C116.219 63.875 115.517 63.0909 115.023 62.0852C114.534 61.0739 114.29 59.8977 114.29 58.5568C114.29 57.2159 114.534 56.0341 115.023 55.0114C115.517 53.983 116.205 53.1818 117.085 52.608C117.972 52.0284 119.006 51.7386 120.188 51.7386C120.869 51.7386 121.543 51.8523 122.207 52.0795C122.872 52.3068 123.477 52.6761 124.023 53.1875C124.568 53.6932 125.003 54.3636 125.327 55.1989C125.651 56.0341 125.812 57.0625 125.812 58.2841V59.1364H115.722V57.3977H123.767C123.767 56.6591 123.619 56 123.324 55.4205C123.034 54.8409 122.619 54.3835 122.08 54.0483C121.545 53.7131 120.915 53.5455 120.188 53.5455C119.386 53.5455 118.693 53.7443 118.108 54.142C117.528 54.5341 117.082 55.0455 116.77 55.6761C116.457 56.3068 116.301 56.983 116.301 57.7045V58.8636C116.301 59.8523 116.472 60.6903 116.812 61.3778C117.159 62.0597 117.639 62.5795 118.253 62.9375C118.866 63.2898 119.58 63.4659 120.392 63.4659C120.92 63.4659 121.398 63.392 121.824 63.2443C122.256 63.0909 122.628 62.8636 122.94 62.5625C123.253 62.2557 123.494 61.875 123.665 61.4205L125.608 61.9659C125.403 62.625 125.06 63.2045 124.577 63.7045C124.094 64.1989 123.497 64.5852 122.787 64.8636C122.077 65.1364 121.278 65.2727 120.392 65.2727ZM138.145 54.8409L136.338 55.3523C136.224 55.0511 136.057 54.7585 135.835 54.4744C135.619 54.1847 135.324 53.946 134.949 53.7585C134.574 53.571 134.094 53.4773 133.509 53.4773C132.707 53.4773 132.04 53.6619 131.506 54.0312C130.977 54.3949 130.713 54.858 130.713 55.4205C130.713 55.9205 130.895 56.3153 131.259 56.6051C131.622 56.8949 132.19 57.1364 132.963 57.3295L134.906 57.8068C136.077 58.0909 136.949 58.5256 137.523 59.1108C138.097 59.6903 138.384 60.4375 138.384 61.3523C138.384 62.1023 138.168 62.7727 137.736 63.3636C137.31 63.9545 136.713 64.4205 135.946 64.7614C135.179 65.1023 134.287 65.2727 133.27 65.2727C131.935 65.2727 130.83 64.983 129.955 64.4034C129.08 63.8239 128.526 62.9773 128.293 61.8636L130.202 61.3864C130.384 62.0909 130.727 62.6193 131.233 62.9716C131.744 63.3239 132.412 63.5 133.236 63.5C134.173 63.5 134.918 63.3011 135.469 62.9034C136.026 62.5 136.304 62.017 136.304 61.4545C136.304 61 136.145 60.6193 135.827 60.3125C135.509 60 135.02 59.767 134.361 59.6136L132.179 59.1023C130.98 58.8182 130.099 58.3778 129.537 57.7812C128.98 57.179 128.702 56.4261 128.702 55.5227C128.702 54.7841 128.909 54.1307 129.324 53.5625C129.744 52.9943 130.315 52.5483 131.037 52.2244C131.764 51.9006 132.588 51.7386 133.509 51.7386C134.804 51.7386 135.821 52.0227 136.56 52.5909C137.304 53.1591 137.832 53.9091 138.145 54.8409ZM141.411 65V51.9091H143.423V65H141.411ZM142.434 49.7273C142.042 49.7273 141.704 49.5938 141.42 49.3267C141.141 49.0597 141.002 48.7386 141.002 48.3636C141.002 47.9886 141.141 47.6676 141.42 47.4006C141.704 47.1335 142.042 47 142.434 47C142.826 47 143.161 47.1335 143.44 47.4006C143.724 47.6676 143.866 47.9886 143.866 48.3636C143.866 48.7386 143.724 49.0597 143.44 49.3267C143.161 49.5938 142.826 49.7273 142.434 49.7273ZM152.391 70.1818C151.419 70.1818 150.584 70.0568 149.885 69.8068C149.186 69.5625 148.604 69.2386 148.138 68.8352C147.678 68.4375 147.311 68.0114 147.038 67.5568L148.641 66.4318C148.822 66.6705 149.053 66.9432 149.331 67.25C149.609 67.5625 149.99 67.8324 150.473 68.0597C150.962 68.2926 151.601 68.4091 152.391 68.4091C153.447 68.4091 154.32 68.1534 155.007 67.642C155.695 67.1307 156.038 66.3295 156.038 65.2386V62.5795H155.868C155.72 62.8182 155.51 63.1136 155.237 63.4659C154.97 63.8125 154.584 64.1222 154.078 64.3949C153.578 64.6619 152.902 64.7955 152.05 64.7955C150.993 64.7955 150.044 64.5455 149.203 64.0455C148.368 63.5455 147.706 62.8182 147.217 61.8636C146.734 60.9091 146.493 59.75 146.493 58.3864C146.493 57.0455 146.729 55.8778 147.2 54.8835C147.672 53.8835 148.328 53.1108 149.169 52.5653C150.01 52.0142 150.982 51.7386 152.084 51.7386C152.936 51.7386 153.612 51.8807 154.112 52.1648C154.618 52.4432 155.004 52.7614 155.271 53.1193C155.544 53.4716 155.754 53.7614 155.902 53.9886H156.107V51.9091H158.05V65.375C158.05 66.5 157.794 67.4148 157.283 68.1193C156.777 68.8295 156.095 69.3494 155.237 69.679C154.385 70.0142 153.436 70.1818 152.391 70.1818ZM152.322 62.9886C153.129 62.9886 153.811 62.804 154.368 62.4347C154.925 62.0653 155.348 61.5341 155.638 60.8409C155.928 60.1477 156.072 59.3182 156.072 58.3523C156.072 57.4091 155.93 56.5767 155.646 55.8551C155.362 55.1335 154.942 54.5682 154.385 54.1591C153.828 53.75 153.141 53.5455 152.322 53.5455C151.47 53.5455 150.76 53.7614 150.192 54.1932C149.629 54.625 149.206 55.2045 148.922 55.9318C148.643 56.6591 148.504 57.4659 148.504 58.3523C148.504 59.2614 148.646 60.0653 148.93 60.7642C149.22 61.4574 149.646 62.0028 150.209 62.4006C150.777 62.7926 151.482 62.9886 152.322 62.9886ZM163.743 57.125V65H161.732V51.9091H163.675V53.9545H163.845C164.152 53.2898 164.618 52.7557 165.243 52.3523C165.868 51.9432 166.675 51.7386 167.663 51.7386C168.55 51.7386 169.325 51.9205 169.99 52.2841C170.655 52.642 171.172 53.1875 171.541 53.9205C171.911 54.6477 172.095 55.5682 172.095 56.6818V65H170.084V56.8182C170.084 55.7898 169.817 54.9886 169.283 54.4148C168.749 53.8352 168.016 53.5455 167.084 53.5455C166.442 53.5455 165.868 53.6847 165.362 53.9631C164.862 54.2415 164.467 54.6477 164.178 55.1818C163.888 55.7159 163.743 56.3636 163.743 57.125ZM181.259 65.2727C179.998 65.2727 178.91 64.9943 177.995 64.4375C177.086 63.875 176.384 63.0909 175.89 62.0852C175.401 61.0739 175.157 59.8977 175.157 58.5568C175.157 57.2159 175.401 56.0341 175.89 55.0114C176.384 53.983 177.072 53.1818 177.952 52.608C178.839 52.0284 179.873 51.7386 181.055 51.7386C181.737 51.7386 182.41 51.8523 183.075 52.0795C183.739 52.3068 184.344 52.6761 184.89 53.1875C185.435 53.6932 185.87 54.3636 186.194 55.1989C186.518 56.0341 186.68 57.0625 186.68 58.2841V59.1364H176.589V57.3977H184.634C184.634 56.6591 184.487 56 184.191 55.4205C183.901 54.8409 183.487 54.3835 182.947 54.0483C182.413 53.7131 181.782 53.5455 181.055 53.5455C180.254 53.5455 179.56 53.7443 178.975 54.142C178.396 54.5341 177.95 55.0455 177.637 55.6761C177.325 56.3068 177.168 56.983 177.168 57.7045V58.8636C177.168 59.8523 177.339 60.6903 177.68 61.3778C178.026 62.0597 178.506 62.5795 179.12 62.9375C179.734 63.2898 180.447 63.4659 181.259 63.4659C181.788 63.4659 182.265 63.392 182.691 63.2443C183.123 63.0909 183.495 62.8636 183.808 62.5625C184.12 62.2557 184.362 61.875 184.532 61.4205L186.475 61.9659C186.271 62.625 185.927 63.2045 185.444 63.7045C184.961 64.1989 184.364 64.5852 183.654 64.8636C182.944 65.1364 182.146 65.2727 181.259 65.2727ZM189.739 65V51.9091H191.683V53.8864H191.819C192.058 53.2386 192.489 52.7131 193.114 52.3097C193.739 51.9062 194.444 51.7045 195.228 51.7045C195.376 51.7045 195.56 51.7074 195.782 51.7131C196.004 51.7187 196.171 51.7273 196.285 51.7386V53.7841C196.217 53.767 196.06 53.7415 195.816 53.7074C195.577 53.6676 195.325 53.6477 195.058 53.6477C194.421 53.6477 193.853 53.7812 193.353 54.0483C192.859 54.3097 192.467 54.6733 192.177 55.1392C191.893 55.5994 191.751 56.125 191.751 56.7159V65H189.739Z" fill="#A2A2A2"/>
</svg>
