<svg preserveAspectRatio="none" overflow="visible" style="display: block;" width="38.9591" height="40" viewBox="0 0 38.9591 40" fill="none" xmlns="http://www.w3.org/2000/svg">
<g id="Logo / Mark">
<path id="Mark part" d="M27.1688 16.8103V23.4861C27.1688 24.2206 26.811 24.8973 26.2337 25.2537L20.7207 28.6592C20.1718 28.9978 19.5047 28.9978 18.9559 28.6592L18.7415 28.5263V23.9667C19.1098 24.117 19.5075 24.199 19.9226 24.199C21.8175 24.199 23.3533 22.4905 23.3533 20.3826C23.3533 18.2746 21.8171 16.5661 19.9226 16.5661C18.0281 16.5661 16.4919 18.2746 16.4919 20.3826C16.4919 20.5489 16.5015 20.7124 16.5198 20.8732V27.1541L13.4424 25.2532C12.8656 24.8968 12.5073 24.2206 12.5073 23.4857V16.8098C12.5073 16.0754 12.8651 15.3987 13.4424 15.0423L18.9559 11.6368C19.5047 11.2982 20.1714 11.2982 20.7207 11.6368L26.2337 15.0423C26.8105 15.3987 27.1688 16.075 27.1688 16.8098V16.8103Z" fill="white"/>
<path id="Mark part_2" d="M1.25241e-05 28.5992V10.5519C1.25241e-05 8.33895 1.08219 6.36521 2.75767 5.52357L12.2127 0.772922C13.249 0.251996 14.3986 0.226795 15.4491 0.702364L17.8402 1.78362L13.9473 3.56448C13.9331 3.56448 13.9184 3.56311 13.9042 3.56311C13.6678 3.56311 13.4318 3.61946 13.2083 3.73171L3.75325 8.48236C3.06418 8.82827 2.61839 9.64058 2.61839 10.5514V28.5987C2.61839 29.4216 2.98675 30.1766 3.58006 30.5674L12.6191 36.529C13.1043 36.8492 13.6751 36.8859 14.1846 36.6298L28.5373 29.4188C29.2191 29.0761 29.6644 28.2734 29.6717 27.3727L29.7982 12.2677C29.806 11.3321 29.33 10.4818 28.6134 10.1514L21.9605 7.08406H21.96L21.3896 6.82061L25.1126 5.11764L29.538 7.15828C30.3956 7.55367 31.1227 8.25144 31.64 9.17601C32.149 10.085 32.417 11.1447 32.417 12.2448C32.417 12.2635 32.417 12.2819 32.417 12.3011L32.2906 27.4057C32.2722 29.5938 31.1905 31.5456 29.5334 32.3785L15.1811 39.589C14.635 39.8639 14.0604 40 13.4873 40C12.7597 40 12.0349 39.7805 11.3752 39.3453L2.33616 33.3837C0.894796 32.433 1.25241e-05 30.6 1.25241e-05 28.5996V28.5992Z" fill="white"/>
<path id="Mark part_3" d="M38.9591 11.4008V29.4481C38.9591 31.661 37.8769 33.6348 36.2014 34.4764L26.7464 39.2271C25.71 39.748 24.5605 39.7732 23.51 39.2976L21.1188 38.2164L25.0118 36.4355C25.026 36.4355 25.0407 36.4369 25.0549 36.4369C25.2913 36.4369 25.5272 36.3805 25.7508 36.2683L35.2058 31.5176C35.8949 31.1717 36.3407 30.3594 36.3407 29.4486V11.4013C36.3407 10.5784 35.9723 9.82338 35.379 9.43257L26.34 3.47101C25.8548 3.15076 25.284 3.11411 24.7745 3.37022L10.4217 10.5812C9.74001 10.9239 9.29468 11.7266 9.28735 12.6273L9.1609 27.7323C9.15311 28.6679 9.62913 29.5182 10.3457 29.8486L16.9986 32.9159H16.9991L17.5695 33.1794L13.8465 34.8824L9.42113 32.8417C8.56345 32.4463 7.83636 31.7486 7.31909 30.824C6.81008 29.915 6.54206 28.8553 6.54206 27.7552C6.54206 27.7365 6.54206 27.7181 6.54206 27.6989L6.66851 12.5943C6.68684 10.4062 7.76855 8.4544 9.42571 7.62147L23.778 0.410969C24.3241 0.136074 24.8986 1.7924e-06 25.4718 1.7924e-06C26.1994 1.7924e-06 26.9242 0.219462 27.5839 0.654712L36.6229 6.61627C38.0643 7.56695 38.9591 9.40004 38.9591 11.4004V11.4008Z" fill="white"/>
<path id="Mark part_4" d="M16.5299 22.8809H12.4981V33.2738H16.5299V22.8809Z" fill="white"/>
</g>
</svg>
